<?xml version="1.0" encoding="UTF-8" standalone="no"?>
<!DOCTYPE svg PUBLIC "-//W3C//DTD SVG 1.1//EN" "http://www.w3.org/Graphics/SVG/1.1/DTD/svg11.dtd">
<svg version="1.1" xmlns="http://www.w3.org/2000/svg" xmlns:xlink="http://www.w3.org/1999/xlink" preserveAspectRatio="xMidYMid meet" viewBox="0 0 682 682" width="682" height="682"><defs><path d="M426.58 671.15L425.79 671.36L425 671.56L425.79 671.36L426.58 671.15L427.37 670.94L428.16 670.73L427.37 670.94L426.58 671.15Z" id="bLmo1dlb0"></path><path d="M346.35 275.95L348.99 276.21L351.59 276.58L354.15 277.06L356.69 277.63L359.18 278.3L361.63 279.06L364.04 279.91L366.41 280.86L368.73 281.89L371 283.02L373.21 284.22L375.38 285.51L377.49 286.88L379.55 288.32L381.54 289.85L383.48 291.44L385.35 293.11L387.15 294.85L388.89 296.65L390.56 298.52L392.15 300.46L393.68 302.45L395.12 304.51L396.49 306.62L397.78 308.79L398.98 311L400.11 313.27L401.14 315.59L402.09 317.96L402.94 320.37L403.7 322.82L404.37 325.31L404.94 327.85L405.42 330.41L405.79 333.01L406.05 335.65L406.22 338.31L406.27 341L406.22 343.69L406.05 346.35L405.79 348.99L405.42 351.59L404.94 354.15L404.37 356.69L403.7 359.18L402.94 361.63L402.09 364.04L401.14 366.41L400.11 368.73L398.98 371L397.78 373.21L396.49 375.38L395.12 377.49L393.68 379.55L392.15 381.54L390.56 383.48L388.89 385.35L387.15 387.15L385.35 388.89L383.48 390.56L381.54 392.15L379.55 393.68L377.49 395.12L375.38 396.49L373.21 397.78L371 398.98L368.73 400.11L366.41 401.14L364.04 402.09L361.63 402.94L359.18 403.7L356.69 404.37L354.15 404.94L351.59 405.42L348.99 405.79L346.35 406.05L343.69 406.22L341 406.27L338.31 406.22L335.65 406.05L333.01 405.79L330.41 405.42L327.85 404.94L325.31 404.37L322.82 403.7L320.37 402.94L317.96 402.09L315.59 401.14L313.27 400.11L311 398.98L308.79 397.78L306.62 396.49L304.51 395.12L302.45 393.68L300.46 392.15L298.52 390.56L296.65 388.89L294.85 387.15L293.11 385.35L291.44 383.48L289.85 381.54L288.32 379.55L286.88 377.49L285.51 375.38L284.22 373.21L283.02 371L281.89 368.73L280.86 366.41L279.91 364.04L279.06 361.63L278.3 359.18L277.63 356.69L277.06 354.15L276.58 351.59L276.21 348.99L275.95 346.35L275.78 343.69L275.73 341L275.78 338.31L275.95 335.65L276.21 333.01L276.58 330.41L277.06 327.85L277.63 325.31L278.3 322.82L279.06 320.37L279.91 317.96L280.86 315.59L281.89 313.27L283.02 311L284.22 308.79L285.51 306.62L286.88 304.51L288.32 302.45L289.85 300.46L291.44 298.52L293.11 296.65L294.85 294.85L296.65 293.11L298.52 291.44L300.46 289.85L302.45 288.32L304.51 286.88L306.62 285.51L308.79 284.22L311 283.02L313.27 281.89L315.59 280.86L317.96 279.91L320.37 279.06L322.82 278.3L325.31 277.63L327.85 277.06L330.41 276.58L333.01 276.21L335.65 275.95L338.31 275.78L341 275.73L343.69 275.78L346.35 275.95Z" id="b4Jb4KVx"></path><path d="M348.5 180.48L352.01 180.48L355.36 180.48L358.56 180.49L361.62 180.49L364.54 180.5L367.32 180.5L369.98 180.51L372.52 180.52L374.94 180.53L377.24 180.54L379.45 180.56L381.55 180.57L383.57 180.59L385.49 180.61L387.33 180.63L389.1 180.65L390.79 180.67L392.42 180.69L394 180.72L395.51 180.75L396.98 180.78L398.41 180.81L399.8 180.84L401.16 180.88L402.49 180.92L403.81 180.96L405.11 181L406.4 181.04L407.69 181.09L408.99 181.14L410.29 181.19L411.6 181.24L412.94 181.3L414.3 181.36L415.7 181.42L417.13 181.48L418.6 181.55L420.13 181.62L421.54 181.69L422.92 181.77L424.28 181.85L425.6 181.95L426.89 182.05L428.15 182.16L429.37 182.27L430.58 182.4L431.75 182.53L432.89 182.66L434.01 182.8L435.09 182.95L436.15 183.1L437.19 183.26L438.2 183.43L439.18 183.59L440.14 183.77L441.08 183.94L441.99 184.13L442.88 184.31L443.74 184.5L444.58 184.69L445.4 184.88L446.2 185.08L446.98 185.28L447.74 185.48L448.48 185.68L449.19 185.88L449.89 186.09L450.57 186.3L451.24 186.5L451.88 186.71L452.51 186.92L453.12 187.13L453.72 187.33L454.3 187.54L454.87 187.75L455.42 187.95L455.96 188.16L456.48 188.36L457.12 188.6L457.75 188.84L458.38 189.09L459.01 189.35L459.63 189.62L460.25 189.89L460.87 190.17L461.48 190.46L462.09 190.75L462.7 191.06L463.3 191.36L463.9 191.68L464.5 192L465.09 192.32L465.68 192.66L466.26 193L466.84 193.34L467.42 193.69L467.99 194.05L468.56 194.42L469.12 194.79L469.68 195.17L470.24 195.55L470.79 195.94L471.34 196.34L471.88 196.74L472.42 197.15L472.95 197.57L473.48 197.99L474.01 198.41L474.53 198.85L475.04 199.29L475.56 199.73L476.06 200.18L476.56 200.64L477.06 201.1L477.55 201.57L478.04 202.04L478.52 202.52L479 203L479.48 203.48L479.96 203.96L480.43 204.45L480.9 204.94L481.36 205.44L481.82 205.94L482.27 206.44L482.71 206.96L483.15 207.47L483.59 207.99L484.01 208.52L484.43 209.05L484.85 209.58L485.26 210.12L485.66 210.66L486.06 211.21L486.45 211.76L486.83 212.32L487.21 212.88L487.58 213.44L487.95 214.01L488.31 214.58L488.66 215.16L489 215.74L489.34 216.32L489.68 216.91L490 217.5L490.32 218.1L490.64 218.7L490.94 219.3L491.25 219.91L491.54 220.52L491.83 221.13L492.11 221.75L492.38 222.37L492.65 222.99L492.91 223.62L493.16 224.25L493.4 224.88L493.64 225.52L493.84 226.04L494.05 226.58L494.25 227.13L494.46 227.7L494.67 228.28L494.88 228.88L495.08 229.49L495.29 230.12L495.5 230.76L495.71 231.43L495.91 232.11L496.12 232.81L496.32 233.53L496.53 234.26L496.73 235.02L496.93 235.8L497.12 236.6L497.32 237.42L497.51 238.26L497.7 239.13L497.88 240.02L498.06 240.93L498.24 241.86L498.41 242.82L498.58 243.8L498.74 244.81L498.9 245.85L499.05 246.91L499.2 248L499.34 249.11L499.48 250.26L499.61 251.43L499.73 252.63L499.85 253.86L499.96 255.12L500.06 256.41L500.15 257.73L500.24 259.08L500.32 260.46L500.39 261.88L500.46 263.4L500.52 264.88L500.59 266.31L500.65 267.7L500.71 269.06L500.76 270.4L500.81 271.72L500.87 273.02L500.91 274.31L500.96 275.6L501.01 276.89L501.05 278.19L501.09 279.51L501.12 280.84L501.16 282.2L501.19 283.59L501.23 285.02L501.26 286.49L501.28 288.01L501.31 289.58L501.33 291.21L501.36 292.9L501.38 294.67L501.4 296.51L501.41 298.44L501.43 300.45L501.44 302.55L501.46 304.76L501.47 307.07L501.48 309.49L501.49 312.02L501.5 314.68L501.5 317.46L501.51 320.38L501.52 323.44L501.52 326.64L501.52 329.99L501.52 333.5L501.52 337.17L501.53 341.01L501.52 344.84L501.52 348.51L501.52 352.02L501.52 355.37L501.52 358.57L501.51 361.63L501.5 364.54L501.5 367.33L501.49 369.99L501.48 372.52L501.47 374.94L501.46 377.25L501.44 379.45L501.43 381.56L501.41 383.57L501.4 385.5L501.38 387.34L501.36 389.1L501.33 390.8L501.31 392.43L501.28 394L501.26 395.52L501.23 396.99L501.19 398.41L501.16 399.8L501.12 401.16L501.09 402.5L501.05 403.81L501.01 405.11L500.96 406.41L500.91 407.7L500.87 408.99L500.81 410.29L500.76 411.61L500.71 412.95L500.65 414.31L500.59 415.7L500.52 417.13L500.46 418.61L500.39 420.13L500.32 421.55L500.24 422.93L500.15 424.28L500.06 425.6L499.96 426.89L499.85 428.15L499.73 429.38L499.61 430.58L499.48 431.75L499.34 432.9L499.2 434.01L499.05 435.1L498.9 436.16L498.74 437.2L498.57 438.2L498.41 439.19L498.23 440.15L498.06 441.08L497.88 441.99L497.69 442.88L497.5 443.74L497.31 444.59L497.12 445.41L496.92 446.21L496.72 446.98L496.52 447.74L496.32 448.48L496.12 449.2L495.91 449.9L495.7 450.58L495.5 451.24L495.29 451.89L495.08 452.52L494.87 453.13L494.67 453.73L494.46 454.31L494.25 454.87L494.05 455.42L493.84 455.96L493.64 456.49L493.14 457.76L492.6 459.02L492.05 460.27L491.46 461.5L490.85 462.72L490.22 463.92L489.57 465.1L488.89 466.28L488.18 467.43L487.46 468.57L486.71 469.69L485.94 470.8L485.14 471.89L484.33 472.96L483.49 474.01L482.63 475.05L481.75 476.06L480.86 477.06L479.94 478.04L479 479L478.04 479.94L477.06 480.86L476.06 481.76L475.04 482.64L474.01 483.5L472.95 484.33L471.88 485.15L470.79 485.94L469.69 486.71L468.57 487.46L467.43 488.19L466.27 488.89L465.1 489.57L463.91 490.23L462.71 490.86L461.49 491.47L460.26 492.05L459.02 492.61L457.75 493.14L456.48 493.65L455.96 493.85L455.42 494.05L454.87 494.26L454.3 494.47L453.72 494.67L453.12 494.88L452.51 495.09L451.88 495.3L451.24 495.5L450.57 495.71L449.89 495.92L449.19 496.12L448.47 496.33L447.74 496.53L446.98 496.73L446.2 496.93L445.4 497.13L444.58 497.32L443.74 497.51L442.87 497.7L441.98 497.88L441.07 498.07L440.14 498.24L439.18 498.42L438.2 498.58L437.19 498.75L436.15 498.91L435.09 499.06L434 499.21L432.89 499.35L431.74 499.48L430.57 499.61L429.37 499.74L428.14 499.85L426.88 499.96L425.59 500.06L424.27 500.16L422.92 500.24L421.54 500.32L420.12 500.39L418.6 500.46L417.13 500.53L415.69 500.59L414.3 500.65L412.94 500.71L411.6 500.77L410.29 500.82L408.99 500.87L407.69 500.92L406.4 500.97L405.11 501.01L403.81 501.05L402.5 501.09L401.16 501.13L399.8 501.17L398.41 501.2L396.98 501.23L395.52 501.26L394 501.29L392.43 501.31L390.8 501.34L389.1 501.36L387.34 501.38L385.49 501.4L383.57 501.42L381.56 501.43L379.45 501.45L377.25 501.46L374.94 501.47L372.52 501.48L369.98 501.49L367.32 501.5L364.54 501.51L361.62 501.52L358.56 501.52L355.36 501.52L352.01 501.53L348.5 501.53L344.83 501.53L340.99 501.53L337.16 501.53L333.49 501.53L329.98 501.53L326.63 501.52L323.43 501.52L320.37 501.52L317.45 501.51L314.67 501.5L312.01 501.49L309.48 501.48L307.06 501.47L304.75 501.46L302.54 501.45L300.44 501.43L298.43 501.42L296.5 501.4L294.66 501.38L292.89 501.36L291.2 501.34L289.57 501.31L288 501.29L286.48 501.26L285.01 501.23L283.59 501.2L282.19 501.17L280.84 501.13L279.5 501.09L278.19 501.05L276.89 501.01L275.59 500.97L274.3 500.92L273.01 500.87L271.71 500.82L270.39 500.77L269.06 500.71L267.69 500.65L266.3 500.59L264.87 500.53L263.4 500.46L261.87 500.39L260.46 500.32L259.08 500.24L257.72 500.16L256.4 500.06L255.11 499.96L253.85 499.85L252.62 499.74L251.42 499.61L250.25 499.48L249.11 499.35L247.99 499.21L246.91 499.06L245.84 498.91L244.81 498.75L243.8 498.58L242.82 498.42L241.86 498.24L240.92 498.07L240.01 497.88L239.12 497.7L238.26 497.51L237.42 497.32L236.59 497.13L235.8 496.93L235.02 496.73L234.26 496.53L233.52 496.33L232.8 496.12L232.1 495.92L231.42 495.71L230.76 495.5L230.11 495.3L229.48 495.09L228.87 494.88L228.27 494.67L227.69 494.47L227.13 494.26L226.58 494.05L226.04 493.85L225.51 493.65L224.88 493.41L224.24 493.16L223.61 492.91L222.99 492.65L222.36 492.38L221.74 492.11L221.13 491.83L220.51 491.54L219.9 491.25L219.3 490.95L218.69 490.64L218.09 490.33L217.5 490.01L216.91 489.68L216.32 489.35L215.73 489.01L215.15 488.66L214.58 488.31L214 487.95L213.44 487.59L212.87 487.21L212.31 486.84L211.75 486.45L211.2 486.06L210.66 485.67L210.11 485.26L209.57 484.85L209.04 484.44L208.51 484.02L207.99 483.59L207.47 483.16L206.95 482.72L206.44 482.28L205.93 481.82L205.43 481.37L204.94 480.91L204.44 480.44L203.96 479.96L203.48 479.49L203 479L202.51 478.52L202.04 478.04L201.56 477.56L201.09 477.06L200.63 476.57L200.18 476.07L199.72 475.56L199.28 475.05L198.84 474.53L198.41 474.01L197.98 473.49L197.56 472.96L197.15 472.43L196.74 471.89L196.34 471.34L195.94 470.8L195.55 470.25L195.16 469.69L194.79 469.13L194.42 468.56L194.05 468L193.69 467.42L193.34 466.85L192.99 466.27L192.65 465.68L192.32 465.09L191.99 464.5L191.67 463.91L191.36 463.31L191.05 462.7L190.75 462.1L190.46 461.49L190.17 460.87L189.89 460.26L189.62 459.64L189.35 459.01L189.09 458.39L188.84 457.76L188.59 457.12L188.35 456.49L188.15 455.96L187.95 455.42L187.74 454.87L187.54 454.31L187.33 453.73L187.12 453.13L186.91 452.52L186.71 451.89L186.5 451.24L186.29 450.58L186.08 449.9L185.88 449.2L185.68 448.48L185.47 447.74L185.27 446.98L185.07 446.21L184.88 445.41L184.68 444.59L184.49 443.74L184.3 442.88L184.12 441.99L183.94 441.08L183.76 440.15L183.59 439.19L183.42 438.2L183.26 437.2L183.1 436.16L182.95 435.1L182.8 434.01L182.66 432.9L182.52 431.75L182.39 430.58L182.27 429.38L182.15 428.15L182.04 426.89L181.94 425.6L181.85 424.28L181.76 422.93L181.68 421.55L181.61 420.13L181.54 418.61L181.48 417.13L181.41 415.7L181.35 414.31L181.29 412.95L181.24 411.61L181.18 410.29L181.13 408.99L181.08 407.7L181.04 406.41L180.99 405.11L180.95 403.81L180.91 402.5L180.87 401.16L180.84 399.8L180.8 398.41L180.77 396.99L180.74 395.52L180.71 394L180.69 392.43L180.66 390.8L180.64 389.1L180.62 387.34L180.6 385.5L180.58 383.57L180.57 381.56L180.55 379.45L180.54 377.25L180.53 374.94L180.52 372.52L180.51 369.99L180.5 367.33L180.49 364.54L180.48 361.63L180.48 358.57L180.48 355.37L180.47 352.02L180.47 348.51L180.47 344.84L180.47 341.01L180.47 337.17L180.47 333.5L180.47 329.99L180.48 326.64L180.48 323.44L180.48 320.38L180.49 317.46L180.5 314.68L180.51 312.02L180.52 309.49L180.53 307.07L180.54 304.76L180.55 302.55L180.57 300.45L180.58 298.44L180.6 296.51L180.62 294.67L180.64 292.9L180.66 291.21L180.69 289.58L180.71 288.01L180.74 286.49L180.77 285.02L180.8 283.59L180.84 282.2L180.87 280.84L180.91 279.51L180.95 278.19L180.99 276.89L181.04 275.6L181.08 274.31L181.13 273.02L181.18 271.72L181.24 270.4L181.29 269.06L181.35 267.7L181.41 266.31L181.48 264.88L181.54 263.4L181.61 261.88L181.68 260.46L181.76 259.08L181.85 257.73L181.94 256.41L182.04 255.12L182.15 253.86L182.27 252.63L182.39 251.43L182.52 250.26L182.66 249.11L182.8 248L182.95 246.91L183.1 245.85L183.26 244.81L183.42 243.8L183.59 242.82L183.76 241.86L183.94 240.93L184.12 240.02L184.3 239.13L184.49 238.26L184.68 237.42L184.88 236.6L185.07 235.8L185.27 235.02L185.47 234.26L185.68 233.53L185.88 232.81L186.08 232.11L186.29 231.43L186.5 230.76L186.71 230.12L186.91 229.49L187.12 228.88L187.33 228.28L187.54 227.7L187.74 227.13L187.95 226.58L188.15 226.04L188.35 225.52L188.59 224.88L188.84 224.25L189.09 223.62L189.35 222.99L189.62 222.37L189.89 221.75L190.17 221.13L190.46 220.52L190.75 219.91L191.05 219.3L191.36 218.7L191.67 218.1L191.99 217.5L192.32 216.91L192.65 216.32L192.99 215.74L193.34 215.16L193.69 214.58L194.05 214.01L194.42 213.44L194.79 212.88L195.17 212.32L195.55 211.76L195.94 211.21L196.34 210.66L196.74 210.12L197.15 209.58L197.57 209.05L197.99 208.52L198.41 207.99L198.85 207.47L199.28 206.96L199.73 206.44L200.18 205.94L200.64 205.44L201.1 204.94L201.57 204.45L202.04 203.96L202.52 203.48L203 203L203.48 202.52L203.96 202.04L204.45 201.57L204.94 201.1L205.44 200.64L205.94 200.18L206.44 199.73L206.95 199.29L207.47 198.85L207.99 198.41L208.51 197.99L209.04 197.57L209.58 197.15L210.12 196.74L210.66 196.34L211.21 195.94L211.76 195.55L212.31 195.17L212.87 194.79L213.44 194.42L214.01 194.05L214.58 193.69L215.16 193.34L215.74 193L216.32 192.66L216.91 192.32L217.5 192L218.1 191.68L218.7 191.36L219.3 191.06L219.91 190.75L220.52 190.46L221.13 190.17L221.75 189.89L222.37 189.62L222.99 189.35L223.62 189.09L224.25 188.84L224.88 188.6L225.52 188.36L226.04 188.16L226.58 187.95L227.13 187.75L227.7 187.54L228.28 187.33L228.87 187.13L229.49 186.92L230.11 186.71L230.76 186.5L231.42 186.3L232.1 186.09L232.8 185.88L233.52 185.68L234.26 185.48L235.02 185.28L235.8 185.08L236.6 184.88L237.42 184.69L238.26 184.5L239.12 184.31L240.01 184.12L240.92 183.94L241.86 183.77L242.82 183.59L243.8 183.43L244.81 183.26L245.84 183.1L246.91 182.95L247.99 182.8L249.11 182.66L250.25 182.52L251.42 182.39L252.62 182.27L253.85 182.15L255.11 182.04L256.4 181.94L257.72 181.85L259.08 181.76L260.46 181.68L261.87 181.61L263.4 181.54L264.87 181.48L266.3 181.41L267.7 181.35L269.06 181.29L270.39 181.24L271.71 181.19L273.01 181.13L274.31 181.09L275.59 181.04L276.89 180.99L278.19 180.95L279.5 180.91L280.84 180.88L282.2 180.84L283.59 180.81L285.01 180.77L286.48 180.74L288 180.72L289.57 180.69L291.2 180.67L292.9 180.64L294.66 180.62L296.51 180.6L298.43 180.59L300.44 180.57L302.55 180.56L304.75 180.54L307.06 180.53L309.48 180.52L312.02 180.51L314.67 180.5L317.46 180.5L320.38 180.49L323.43 180.48L326.64 180.48L329.99 180.48L333.5 180.48L337.16 180.48L341 180.47L344.84 180.48L348.5 180.48ZM332.75 240.79L328.7 241.2L324.69 241.77L320.73 242.5L316.84 243.37L313 244.4L309.22 245.58L305.5 246.9L301.86 248.35L298.29 249.95L294.79 251.67L291.37 253.53L288.03 255.52L284.78 257.62L281.61 259.85L278.54 262.2L275.56 264.65L272.68 267.22L269.9 269.9L267.22 272.68L264.65 275.56L262.19 278.54L259.85 281.62L257.62 284.78L255.51 288.03L253.53 291.37L251.67 294.79L249.94 298.29L248.35 301.86L246.89 305.51L245.57 309.22L244.4 313L243.37 316.84L242.49 320.74L241.76 324.69L241.19 328.7L240.78 332.75L240.53 336.86L240.45 341L240.53 345.14L240.78 349.25L241.19 353.3L241.76 357.31L242.49 361.26L243.37 365.16L244.4 369L245.57 372.78L246.89 376.49L248.35 380.14L249.94 383.71L251.67 387.21L253.53 390.63L255.51 393.97L257.62 397.22L259.85 400.38L262.19 403.46L264.65 406.44L267.22 409.32L269.9 412.1L272.68 414.78L275.56 417.35L278.54 419.8L281.61 422.15L284.78 424.38L288.03 426.48L291.37 428.47L294.79 430.33L298.29 432.05L301.86 433.65L305.5 435.1L309.22 436.42L313 437.6L316.84 438.63L320.73 439.5L324.69 440.23L328.7 440.8L332.75 441.21L336.86 441.46L341 441.55L345.14 441.46L349.25 441.21L353.3 440.8L357.31 440.23L361.26 439.5L365.16 438.63L369 437.6L372.78 436.42L376.49 435.1L380.14 433.65L383.71 432.05L387.21 430.33L390.63 428.47L393.96 426.48L397.22 424.38L400.38 422.15L403.46 419.8L406.43 417.35L409.32 414.78L412.1 412.1L414.77 409.32L417.34 406.44L419.8 403.46L422.15 400.38L424.38 397.22L426.48 393.97L428.47 390.63L430.32 387.21L432.05 383.71L433.65 380.14L435.1 376.49L436.42 372.78L437.6 369L438.63 365.16L439.5 361.26L440.23 357.31L440.8 353.3L441.21 349.25L441.46 345.14L441.55 341L441.46 336.86L441.21 332.75L440.8 328.7L440.23 324.69L439.5 320.74L438.63 316.84L437.6 313L436.42 309.22L435.1 305.51L433.65 301.86L432.05 298.29L430.32 294.79L428.47 291.37L426.48 288.03L424.38 284.78L422.15 281.62L419.8 278.54L417.34 275.56L414.77 272.68L412.1 269.9L409.32 267.22L406.43 264.65L403.46 262.2L400.38 259.85L397.22 257.62L393.96 255.52L390.63 253.53L387.21 251.67L383.71 249.95L380.14 248.35L376.49 246.9L372.78 245.58L369 244.4L365.16 243.37L361.26 242.5L357.31 241.77L353.3 241.2L349.25 240.79L345.14 240.54L341 240.45L336.86 240.54L332.75 240.79ZM442.88 213.13L441.58 213.31L440.31 213.56L439.07 213.88L437.86 214.26L436.67 214.7L435.51 215.21L434.39 215.78L433.31 216.4L432.26 217.08L431.25 217.81L430.28 218.6L429.35 219.43L428.47 220.31L427.64 221.23L426.86 222.2L426.13 223.21L425.45 224.26L424.82 225.35L424.26 226.47L423.75 227.62L423.3 228.81L422.92 230.03L422.6 231.27L422.35 232.54L422.17 233.83L422.06 235.14L422.02 236.48L422.06 237.81L422.17 239.12L422.35 240.42L422.6 241.69L422.92 242.93L423.3 244.14L423.75 245.33L424.26 246.49L424.82 247.61L425.45 248.69L426.13 249.74L426.86 250.75L427.64 251.72L428.47 252.65L429.35 253.53L430.28 254.36L431.25 255.14L432.26 255.87L433.31 256.55L434.39 257.18L435.51 257.74L436.67 258.25L437.86 258.7L439.07 259.08L440.31 259.4L441.58 259.65L442.88 259.83L444.19 259.94L445.52 259.98L446.86 259.94L448.17 259.83L449.46 259.65L450.73 259.4L451.97 259.08L453.19 258.7L454.38 258.25L455.53 257.74L456.65 257.18L457.74 256.55L458.79 255.87L459.8 255.14L460.77 254.36L461.69 253.53L462.57 252.65L463.4 251.72L464.19 250.75L464.92 249.74L465.6 248.69L466.22 247.61L466.79 246.49L467.29 245.33L467.74 244.14L468.12 242.93L468.44 241.69L468.69 240.42L468.87 239.12L468.98 237.81L469.02 236.48L468.98 235.14L468.87 233.83L468.69 232.54L468.44 231.27L468.12 230.03L467.74 228.81L467.3 227.62L466.79 226.47L466.22 225.35L465.6 224.26L464.92 223.21L464.19 222.2L463.4 221.23L462.57 220.31L461.69 219.43L460.77 218.6L459.8 217.81L458.79 217.08L457.74 216.4L456.65 215.78L455.53 215.21L454.38 214.7L453.19 214.26L451.97 213.88L450.73 213.56L449.46 213.31L448.17 213.13L446.86 213.02L445.52 212.98L444.19 213.02L442.88 213.13Z" id="civg1EGAA"></path><path d="M368.96 1.13L382.72 2.53L396.3 4.46L409.72 6.93L422.94 9.91L435.96 13.4L448.77 17.39L461.36 21.86L473.72 26.8L485.84 32.21L497.7 38.07L509.29 44.37L520.61 51.1L531.64 58.25L542.38 65.8L552.8 73.75L562.91 82.09L572.68 90.81L582.11 99.89L591.19 109.32L599.91 119.09L608.25 129.2L616.2 139.62L623.75 150.36L630.9 161.39L637.63 172.71L643.93 184.3L649.79 196.16L655.2 208.28L660.14 220.64L664.61 233.23L668.6 246.04L672.09 259.06L675.07 272.28L677.54 285.7L679.47 299.28L680.87 313.04L681.72 326.95L682 341L681.72 355.05L680.87 368.96L679.47 382.72L677.54 396.3L675.07 409.72L672.09 422.94L668.6 435.96L664.61 448.77L660.14 461.36L655.2 473.72L649.79 485.84L643.93 497.7L637.63 509.29L630.9 520.61L623.75 531.64L616.2 542.38L608.25 552.8L599.91 562.91L591.19 572.68L582.11 582.11L572.68 591.19L562.91 599.91L552.8 608.25L542.38 616.2L531.64 623.75L520.61 630.9L509.29 637.63L497.7 643.93L485.84 649.79L473.72 655.2L461.36 660.14L448.77 664.61L435.96 668.6L422.94 672.09L409.72 675.07L396.3 677.54L382.72 679.47L368.96 680.87L355.05 681.72L341 682L326.95 681.72L313.04 680.87L299.28 679.47L285.7 677.54L272.28 675.07L259.06 672.09L246.04 668.6L233.23 664.61L220.64 660.14L208.28 655.2L196.16 649.79L184.3 643.93L172.71 637.63L161.39 630.9L150.36 623.75L139.62 616.2L129.2 608.25L119.09 599.91L109.32 591.19L99.89 582.11L90.81 572.68L82.09 562.91L73.75 552.8L65.8 542.38L58.25 531.64L51.1 520.61L44.37 509.29L38.07 497.7L32.21 485.84L26.8 473.72L21.86 461.36L17.39 448.77L13.4 435.96L9.91 422.94L6.93 409.72L4.46 396.3L2.53 382.72L1.13 368.96L0.28 355.05L0 341L0.28 326.95L1.13 313.04L2.53 299.28L4.46 285.7L6.93 272.28L9.91 259.06L13.4 246.04L17.39 233.23L21.86 220.64L26.8 208.28L32.21 196.16L38.07 184.3L44.37 172.71L51.1 161.39L58.25 150.36L65.8 139.62L73.75 129.2L82.09 119.09L90.81 109.32L99.89 99.89L109.32 90.81L119.09 82.09L129.2 73.75L139.62 65.8L150.36 58.25L161.39 51.1L172.71 44.37L184.3 38.07L196.16 32.21L208.28 26.8L220.64 21.86L233.23 17.39L246.04 13.4L259.06 9.91L272.28 6.93L285.7 4.46L299.28 2.53L313.04 1.13L326.95 0.28L341 0L355.05 0.28L368.96 1.13ZM333.36 145.19L329.79 145.2L326.38 145.2L323.12 145.2L320 145.21L317.03 145.22L314.19 145.22L311.48 145.23L308.89 145.24L306.42 145.25L304.06 145.27L301.8 145.28L299.65 145.3L297.59 145.31L295.62 145.33L293.74 145.35L291.93 145.38L290.19 145.4L288.52 145.42L286.92 145.45L285.36 145.48L283.86 145.51L282.39 145.55L280.97 145.58L279.58 145.62L278.21 145.66L276.87 145.7L275.54 145.74L274.22 145.79L272.9 145.83L271.58 145.88L270.25 145.94L268.91 145.99L267.55 146.05L266.17 146.11L264.76 146.17L263.3 146.24L261.81 146.3L260.27 146.37L258.72 146.45L257.19 146.53L255.69 146.63L254.21 146.73L252.76 146.84L251.32 146.96L249.91 147.08L248.52 147.22L247.15 147.36L245.8 147.52L244.47 147.68L243.17 147.84L241.88 148.02L240.61 148.2L239.36 148.39L238.12 148.59L236.91 148.8L235.71 149.01L234.53 149.24L233.36 149.47L232.21 149.7L231.08 149.95L229.96 150.2L228.85 150.45L227.76 150.72L226.68 150.99L225.61 151.27L224.56 151.55L223.52 151.85L222.49 152.14L221.47 152.45L220.47 152.76L219.47 153.08L218.48 153.4L217.5 153.73L216.54 154.07L215.57 154.41L214.62 154.76L213.68 155.11L212.74 155.47L211.76 155.85L210.79 156.23L209.82 156.63L208.86 157.03L207.9 157.45L206.95 157.87L206 158.31L205.05 158.75L204.12 159.21L203.18 159.68L202.26 160.15L201.34 160.64L200.42 161.13L199.51 161.64L198.6 162.15L197.7 162.68L196.81 163.21L195.92 163.76L195.04 164.31L194.17 164.87L193.3 165.45L192.44 166.03L191.58 166.62L190.73 167.22L189.88 167.83L189.05 168.45L188.22 169.08L187.39 169.72L186.58 170.36L185.77 171.02L184.96 171.68L184.17 172.36L183.38 173.04L182.6 173.73L181.82 174.43L181.05 175.14L180.29 175.86L179.54 176.58L178.8 177.32L178.06 178.06L177.32 178.8L176.58 179.54L175.86 180.29L175.14 181.05L174.43 181.82L173.73 182.6L173.04 183.38L172.36 184.17L171.68 184.96L171.02 185.77L170.36 186.58L169.72 187.39L169.08 188.22L168.45 189.05L167.83 189.88L167.22 190.73L166.62 191.58L166.03 192.44L165.44 193.3L164.87 194.17L164.31 195.04L163.75 195.92L163.21 196.81L162.67 197.7L162.15 198.6L161.63 199.51L161.13 200.42L160.63 201.34L160.15 202.26L159.67 203.18L159.21 204.12L158.75 205.05L158.3 206L157.87 206.95L157.44 207.9L157.03 208.86L156.62 209.82L156.23 210.79L155.84 211.76L155.47 212.74L155.11 213.68L154.75 214.62L154.41 215.57L154.06 216.54L153.73 217.5L153.4 218.48L153.07 219.47L152.75 220.47L152.44 221.47L152.14 222.49L151.84 223.52L151.55 224.56L151.26 225.61L150.98 226.68L150.71 227.76L150.45 228.85L150.19 229.96L149.94 231.08L149.7 232.21L149.46 233.36L149.23 234.53L149.01 235.71L148.8 236.91L148.59 238.12L148.39 239.36L148.2 240.61L148.02 241.88L147.84 243.17L147.67 244.47L147.51 245.8L147.36 247.15L147.22 248.52L147.08 249.91L146.96 251.32L146.84 252.76L146.73 254.21L146.63 255.69L146.53 257.19L146.45 258.72L146.37 260.27L146.3 261.81L146.23 263.3L146.17 264.76L146.11 266.17L146.05 267.55L145.99 268.91L145.93 270.25L145.88 271.58L145.83 272.9L145.78 274.22L145.74 275.54L145.7 276.87L145.65 278.21L145.62 279.58L145.58 280.97L145.54 282.39L145.51 283.86L145.48 285.36L145.45 286.92L145.42 288.52L145.4 290.19L145.37 291.93L145.35 293.74L145.33 295.62L145.31 297.59L145.3 299.65L145.28 301.8L145.27 304.06L145.25 306.42L145.24 308.89L145.23 311.48L145.22 314.19L145.21 317.03L145.21 320L145.2 323.12L145.2 326.38L145.2 329.79L145.19 333.36L145.19 337.1L145.19 341L145.19 344.9L145.19 348.64L145.2 352.21L145.2 355.62L145.2 358.88L145.21 362L145.21 364.97L145.22 367.81L145.23 370.52L145.24 373.11L145.25 375.58L145.27 377.94L145.28 380.2L145.3 382.35L145.31 384.41L145.33 386.38L145.35 388.26L145.37 390.07L145.4 391.81L145.42 393.48L145.45 395.09L145.48 396.64L145.51 398.15L145.54 399.61L145.58 401.03L145.62 402.42L145.66 403.79L145.7 405.13L145.74 406.47L145.79 407.79L145.83 409.1L145.88 410.42L145.94 411.75L145.99 413.09L146.05 414.45L146.11 415.83L146.17 417.25L146.24 418.7L146.31 420.19L146.38 421.73L146.45 423.28L146.54 424.81L146.63 426.31L146.73 427.79L146.84 429.25L146.96 430.68L147.09 432.09L147.22 433.48L147.37 434.85L147.52 436.2L147.68 437.53L147.85 438.84L148.02 440.12L148.21 441.39L148.4 442.65L148.6 443.88L148.8 445.1L149.02 446.29L149.24 447.48L149.47 448.64L149.7 449.79L149.95 450.93L150.2 452.05L150.46 453.15L150.72 454.25L150.99 455.32L151.27 456.39L151.56 457.44L151.85 458.48L152.15 459.51L152.45 460.53L152.76 461.54L153.08 462.53L153.41 463.52L153.74 464.5L154.07 465.47L154.42 466.43L154.76 467.38L155.12 468.32L155.48 469.26L155.85 470.24L156.24 471.21L156.63 472.18L157.04 473.14L157.45 474.1L157.88 475.05L158.31 476L158.76 476.95L159.21 477.88L159.68 478.82L160.16 479.74L160.64 480.66L161.14 481.58L161.64 482.49L162.16 483.4L162.68 484.3L163.22 485.19L163.76 486.08L164.32 486.96L164.88 487.83L165.45 488.7L166.03 489.56L166.62 490.42L167.23 491.27L167.84 492.12L168.45 492.95L169.08 493.78L169.72 494.61L170.37 495.42L171.02 496.23L171.69 497.04L172.36 497.83L173.04 498.62L173.73 499.4L174.43 500.18L175.14 500.95L175.86 501.71L176.58 502.46L177.32 503.2L178.06 503.94L178.8 504.68L179.54 505.42L180.3 506.14L181.06 506.86L181.82 507.57L182.6 508.27L183.38 508.96L184.17 509.64L184.97 510.32L185.77 510.98L186.58 511.64L187.4 512.28L188.22 512.92L189.05 513.55L189.89 514.17L190.73 514.78L191.58 515.38L192.44 515.97L193.3 516.55L194.17 517.13L195.04 517.69L195.93 518.24L196.81 518.79L197.71 519.32L198.61 519.85L199.51 520.36L200.42 520.87L201.34 521.36L202.26 521.85L203.19 522.32L204.12 522.79L205.06 523.25L206 523.69L206.95 524.13L207.9 524.55L208.86 524.97L209.83 525.37L210.79 525.77L211.77 526.15L212.75 526.53L213.68 526.89L214.63 527.24L215.58 527.59L216.54 527.93L217.51 528.27L218.49 528.6L219.47 528.92L220.47 529.24L221.48 529.55L222.49 529.86L223.52 530.15L224.56 530.45L225.62 530.73L226.68 531.01L227.76 531.28L228.85 531.55L229.96 531.8L231.08 532.05L232.21 532.3L233.36 532.53L234.53 532.76L235.71 532.99L236.91 533.2L238.13 533.41L239.36 533.61L240.61 533.8L241.88 533.98L243.17 534.16L244.48 534.32L245.81 534.48L247.15 534.64L248.52 534.78L249.91 534.92L251.32 535.04L252.76 535.16L254.21 535.27L255.69 535.37L257.19 535.47L258.72 535.55L260.27 535.63L261.81 535.7L263.31 535.76L264.76 535.83L266.17 535.89L267.56 535.95L268.92 536.01L270.26 536.06L271.58 536.12L272.9 536.17L274.22 536.21L275.54 536.26L276.87 536.3L278.21 536.34L279.58 536.38L280.97 536.42L282.4 536.45L283.86 536.49L285.36 536.52L286.92 536.55L288.53 536.58L290.2 536.6L291.93 536.62L293.74 536.65L295.63 536.67L297.6 536.69L299.65 536.7L301.81 536.72L304.06 536.73L306.42 536.75L308.89 536.76L311.48 536.77L314.19 536.78L317.03 536.78L320.01 536.79L323.12 536.8L326.39 536.8L329.8 536.8L333.37 536.81L337.1 536.81L341.01 536.81L344.91 536.81L348.64 536.81L352.21 536.8L355.62 536.8L358.89 536.8L362 536.79L364.98 536.78L367.82 536.78L370.53 536.77L373.12 536.76L375.59 536.75L377.95 536.73L380.2 536.72L382.35 536.7L384.41 536.69L386.38 536.67L388.27 536.65L390.07 536.62L391.81 536.6L393.48 536.58L395.09 536.55L396.64 536.52L398.15 536.49L399.61 536.45L401.04 536.42L402.43 536.38L403.79 536.34L405.14 536.3L406.47 536.26L407.79 536.21L409.11 536.17L410.42 536.12L411.75 536.06L413.09 536.01L414.45 535.95L415.83 535.89L417.25 535.83L418.7 535.76L420.19 535.7L421.73 535.63L423.28 535.55L424.81 535.47L426.31 535.37L427.79 535.27L429.25 535.16L430.68 535.04L432.09 534.92L433.48 534.78L434.85 534.64L436.2 534.48L437.53 534.32L438.84 534.16L440.12 533.98L441.39 533.8L442.65 533.61L443.88 533.41L445.1 533.2L446.29 532.99L447.48 532.76L448.64 532.53L449.79 532.3L450.93 532.05L452.05 531.8L453.15 531.55L454.25 531.28L455.32 531.01L456.39 530.73L457.44 530.45L458.48 530.15L459.51 529.86L460.53 529.55L461.54 529.24L462.53 528.92L463.52 528.6L464.5 528.27L465.47 527.93L466.43 527.59L467.38 527.24L468.32 526.89L469.26 526.53L471.22 525.74L473.16 524.92L475.08 524.06L476.98 523.16L478.86 522.22L480.71 521.25L482.54 520.24L484.34 519.19L486.12 518.11L487.87 516.99L489.6 515.83L491.31 514.64L492.98 513.42L494.63 512.16L496.26 510.87L497.85 509.55L499.42 508.19L500.96 506.81L502.46 505.39L503.94 503.94L505.39 502.46L506.81 500.96L508.19 499.42L509.55 497.85L510.87 496.26L512.16 494.63L513.42 492.98L514.64 491.31L515.83 489.6L516.99 487.87L518.11 486.12L519.19 484.34L520.24 482.54L521.25 480.71L522.22 478.86L523.16 476.98L524.06 475.08L524.92 473.16L525.74 471.22L526.53 469.26L526.89 468.32L527.24 467.38L527.59 466.43L527.93 465.46L528.27 464.5L528.6 463.52L528.92 462.53L529.24 461.53L529.55 460.53L529.86 459.51L530.16 458.48L530.45 457.44L530.73 456.39L531.01 455.32L531.28 454.24L531.55 453.15L531.81 452.04L532.06 450.92L532.3 449.79L532.54 448.64L532.77 447.47L532.99 446.29L533.2 445.09L533.41 443.88L533.61 442.64L533.8 441.39L533.98 440.12L534.16 438.83L534.33 437.53L534.49 436.2L534.64 434.85L534.78 433.48L534.92 432.09L535.04 430.68L535.16 429.24L535.27 427.79L535.37 426.31L535.47 424.81L535.55 423.28L535.63 421.73L535.7 420.19L535.77 418.7L535.83 417.24L535.89 415.83L535.95 414.45L536.01 413.09L536.07 411.75L536.12 410.42L536.17 409.1L536.22 407.78L536.26 406.46L536.3 405.13L536.35 403.79L536.38 402.42L536.42 401.03L536.46 399.61L536.49 398.14L536.52 396.64L536.55 395.08L536.58 393.48L536.6 391.81L536.63 390.07L536.65 388.26L536.67 386.38L536.69 384.41L536.7 382.35L536.72 380.2L536.73 377.94L536.75 375.58L536.76 373.11L536.77 370.52L536.78 367.81L536.79 364.97L536.79 362L536.8 358.88L536.8 355.62L536.8 352.21L536.81 348.64L536.81 344.9L536.81 341L536.81 337.1L536.81 333.36L536.8 329.79L536.8 326.38L536.8 323.12L536.79 320L536.79 317.03L536.78 314.19L536.77 311.48L536.76 308.89L536.75 306.42L536.73 304.06L536.72 301.8L536.7 299.65L536.69 297.59L536.67 295.62L536.65 293.74L536.63 291.93L536.6 290.19L536.58 288.52L536.55 286.92L536.52 285.36L536.49 283.86L536.46 282.39L536.42 280.97L536.39 279.58L536.35 278.21L536.31 276.87L536.26 275.54L536.22 274.22L536.17 272.9L536.12 271.58L536.07 270.25L536.01 268.91L535.96 267.55L535.9 266.17L535.83 264.76L535.77 263.3L535.7 261.81L535.63 260.27L535.56 258.72L535.47 257.19L535.38 255.69L535.28 254.21L535.17 252.76L535.05 251.32L534.92 249.91L534.79 248.52L534.64 247.15L534.49 245.8L534.33 244.47L534.16 243.17L533.99 241.88L533.8 240.61L533.61 239.36L533.41 238.12L533.2 236.91L532.99 235.71L532.77 234.53L532.54 233.36L532.3 232.21L532.06 231.08L531.81 229.96L531.55 228.85L531.29 227.76L531.01 226.68L530.74 225.61L530.45 224.56L530.16 223.52L529.86 222.49L529.55 221.47L529.24 220.47L528.92 219.47L528.6 218.48L528.27 217.5L527.93 216.54L527.59 215.57L527.24 214.62L526.89 213.68L526.53 212.74L526.15 211.76L525.77 210.79L525.37 209.82L524.97 208.86L524.55 207.9L524.13 206.95L523.69 206L523.25 205.06L522.79 204.12L522.33 203.18L521.85 202.26L521.37 201.34L520.87 200.42L520.36 199.51L519.85 198.6L519.32 197.71L518.79 196.81L518.25 195.93L517.69 195.04L517.13 194.17L516.56 193.3L515.97 192.44L515.38 191.58L514.78 190.73L514.17 189.89L513.55 189.05L512.92 188.22L512.29 187.4L511.64 186.58L510.98 185.77L510.32 184.97L509.65 184.17L508.96 183.38L508.27 182.6L507.57 181.82L506.86 181.06L506.15 180.3L505.42 179.54L504.69 178.8L503.94 178.06L503.21 177.32L502.46 176.58L501.71 175.86L500.95 175.14L500.18 174.43L499.41 173.73L498.62 173.04L497.84 172.36L497.04 171.68L496.24 171.02L495.43 170.36L494.61 169.72L493.78 169.08L492.95 168.45L492.12 167.83L491.27 167.22L490.42 166.62L489.57 166.03L488.7 165.44L487.83 164.87L486.96 164.31L486.08 163.75L485.19 163.21L484.3 162.67L483.4 162.15L482.49 161.63L481.58 161.13L480.66 160.63L479.74 160.15L478.82 159.67L477.88 159.21L476.95 158.75L476 158.3L475.05 157.87L474.1 157.44L473.14 157.03L472.18 156.62L471.21 156.23L470.24 155.84L469.26 155.47L468.32 155.11L467.38 154.75L466.43 154.41L465.46 154.06L464.5 153.73L463.52 153.4L462.53 153.07L461.53 152.76L460.53 152.45L459.51 152.14L458.48 151.84L457.44 151.55L456.39 151.27L455.32 150.99L454.24 150.72L453.15 150.45L452.04 150.2L450.92 149.94L449.79 149.7L448.64 149.47L447.47 149.24L446.29 149.01L445.09 148.8L443.88 148.59L442.64 148.4L441.39 148.2L440.12 148.02L438.83 147.85L437.53 147.68L436.2 147.52L434.85 147.37L433.48 147.22L432.09 147.09L430.68 146.96L429.24 146.84L427.79 146.73L426.31 146.63L424.81 146.54L423.28 146.45L421.73 146.38L420.19 146.31L418.7 146.24L417.24 146.17L415.83 146.11L414.45 146.05L413.09 145.99L411.75 145.94L410.42 145.89L409.1 145.84L407.78 145.79L406.46 145.74L405.13 145.7L403.79 145.66L402.42 145.62L401.03 145.58L399.61 145.55L398.14 145.51L396.64 145.48L395.08 145.45L393.48 145.43L391.81 145.4L390.07 145.38L388.26 145.35L386.38 145.33L384.41 145.31L382.35 145.3L380.2 145.28L377.94 145.27L375.58 145.25L373.11 145.24L370.52 145.23L367.81 145.22L364.97 145.22L362 145.21L358.88 145.2L355.62 145.2L352.21 145.2L348.64 145.19L344.9 145.19L341 145.19L337.1 145.19L333.36 145.19Z" id="ltmCoFgTF"></path></defs><g><g><path></path><path></path><path></path><path></path><path></path><path></path><g><use xlink:href="#bLmo1dlb0" opacity="1" fill="#000000" fill-opacity="1"></use><g><use xlink:href="#bLmo1dlb0" opacity="1" fill-opacity="0" stroke="#000000" stroke-width="1" stroke-opacity="0"></use></g></g><path></path><path></path><path></path><path></path><g><use xlink:href="#b4Jb4KVx" opacity="1" fill="#3473e6" fill-opacity="1"></use><g><use xlink:href="#b4Jb4KVx" opacity="1" fill-opacity="0" stroke="#000000" stroke-width="1" stroke-opacity="0"></use></g></g><g><use xlink:href="#civg1EGAA" opacity="1" fill="#3473e6" fill-opacity="1"></use><g><use xlink:href="#civg1EGAA" opacity="1" fill-opacity="0" stroke="#000000" stroke-width="1" stroke-opacity="0"></use></g></g><g><use xlink:href="#ltmCoFgTF" opacity="1" fill="#3473e6" fill-opacity="1"></use><g><use xlink:href="#ltmCoFgTF" opacity="1" fill-opacity="0" stroke="#000000" stroke-width="1" stroke-opacity="0"></use></g></g></g></g></svg>