<?xml version="1.0" encoding="UTF-8" standalone="no"?>
<!DOCTYPE svg PUBLIC "-//W3C//DTD SVG 1.1//EN" "http://www.w3.org/Graphics/SVG/1.1/DTD/svg11.dtd">
<svg version="1.1" xmlns="http://www.w3.org/2000/svg" xmlns:xlink="http://www.w3.org/1999/xlink" preserveAspectRatio="xMidYMid meet" viewBox="0 0 682 682" width="682" height="682"><defs><path d="M426.58 671.15L425.79 671.36L425 671.56L425.79 671.36L426.58 671.15L427.37 670.94L428.16 670.73L427.37 670.94L426.58 671.15Z" id="bLmo1dlb0"></path><path d="M368.96 1.13L382.72 2.53L396.3 4.46L409.72 6.93L422.94 9.91L435.96 13.4L448.77 17.39L461.36 21.86L473.72 26.8L485.84 32.21L497.7 38.07L509.29 44.37L520.61 51.1L531.64 58.25L542.38 65.8L552.8 73.75L562.91 82.09L572.68 90.81L582.11 99.89L591.19 109.32L599.91 119.09L608.25 129.2L616.2 139.62L623.75 150.36L630.9 161.39L637.63 172.71L643.93 184.3L649.79 196.16L655.2 208.28L660.14 220.64L664.61 233.23L668.6 246.04L672.09 259.06L675.07 272.28L677.54 285.7L679.47 299.28L680.87 313.04L681.72 326.95L682 341L681.81 352.63L681.23 364.16L680.27 375.58L678.94 386.9L677.24 398.1L675.18 409.18L672.77 420.13L670.01 430.94L666.91 441.61L663.47 452.14L659.7 462.52L655.61 472.73L651.21 482.78L646.49 492.65L641.47 502.35L636.15 511.87L630.54 521.19L624.64 530.32L618.46 539.24L612.01 547.96L605.3 556.46L598.32 564.74L591.08 572.79L583.6 580.61L575.88 588.18L567.91 595.51L559.72 602.59L551.31 609.41L542.68 615.97L533.83 622.25L524.78 628.26L515.53 633.98L506.09 639.42L496.47 644.56L486.66 649.39L476.67 653.92L466.52 658.13L456.21 662.03L445.74 665.59L435.13 668.83L435.13 416.47L508.66 416.47L519.68 331.09L435.13 331.09L435.13 276.71L435.14 274.87L435.18 273.07L435.25 271.3L435.35 269.56L435.49 267.85L435.66 266.17L435.87 264.53L436.12 262.93L436.41 261.36L436.75 259.83L437.13 258.33L437.56 256.88L438.04 255.46L438.57 254.09L439.16 252.75L439.8 251.46L440.5 250.21L441.26 249.01L442.08 247.85L442.97 246.73L443.92 245.66L444.95 244.64L446.04 243.66L447.2 242.74L448.44 241.86L449.76 241.04L451.15 240.26L452.62 239.54L454.18 238.87L455.82 238.26L457.55 237.69L459.37 237.19L461.27 236.74L463.27 236.35L465.37 236.01L467.56 235.74L469.85 235.52L472.24 235.37L474.74 235.28L477.34 235.24L522.16 235.24L522.16 159.09L521.54 159.01L520.85 158.92L520.09 158.84L519.26 158.74L518.37 158.65L517.42 158.55L516.4 158.45L515.32 158.34L514.18 158.24L512.98 158.13L511.72 158.02L510.41 157.91L509.05 157.8L507.63 157.68L506.15 157.57L504.63 157.46L503.06 157.35L501.44 157.24L499.77 157.13L498.06 157.02L496.31 156.92L494.51 156.81L492.67 156.71L490.8 156.62L488.88 156.52L486.93 156.43L484.94 156.34L482.92 156.26L480.86 156.18L478.77 156.11L476.66 156.04L474.51 155.98L472.34 155.93L470.14 155.88L467.91 155.83L465.67 155.8L463.4 155.77L461.11 155.75L458.8 155.74L456.48 155.73L451.64 155.81L446.88 156.03L442.21 156.4L437.62 156.92L433.11 157.58L428.69 158.39L424.36 159.34L420.13 160.44L415.99 161.68L411.95 163.07L408 164.6L404.16 166.27L400.43 168.08L396.79 170.03L393.27 172.12L389.86 174.36L386.56 176.73L383.37 179.24L380.31 181.89L377.36 184.67L374.53 187.59L371.83 190.65L369.26 193.84L366.81 197.17L364.5 200.63L362.31 204.23L360.27 207.96L358.36 211.82L356.59 215.81L354.96 219.94L353.48 224.19L352.14 228.58L350.95 233.09L349.92 237.73L349.03 242.5L348.3 247.4L347.73 252.43L347.32 257.58L347.08 262.86L346.99 268.26L346.99 331.09L273.73 331.09L273.73 416.47L346.99 416.47L346.99 681.92L346.84 681.92L346.69 681.93L346.54 681.93L346.1 681.94L345.95 681.94L345.8 681.94L345.65 681.95L345.5 681.95L345.35 681.95L345.2 681.95L345.05 681.96L344.9 681.96L344.75 681.96L344.6 681.97L344.45 681.97L344.3 681.97L344.15 681.97L344 681.97L343.85 681.98L343.7 681.98L343.55 681.98L343.4 681.98L343.25 681.98L343.1 681.99L342.95 681.99L342.8 681.99L342.65 681.99L342.5 681.99L342.35 681.99L342.2 682L342.05 682L341.9 682L341.75 682L341.6 682L341.45 682L341.3 682L341.15 682L341 682L326.95 681.72L313.04 680.87L299.28 679.47L285.7 677.54L272.28 675.07L259.06 672.09L246.04 668.6L233.23 664.61L220.64 660.14L208.28 655.2L196.16 649.79L184.3 643.93L172.71 637.63L161.39 630.9L150.36 623.75L139.62 616.2L129.2 608.25L119.09 599.91L109.32 591.19L99.89 582.11L90.81 572.68L82.09 562.91L73.75 552.8L65.8 542.38L58.25 531.64L51.1 520.61L44.37 509.29L38.07 497.7L32.21 485.84L26.8 473.72L21.86 461.36L17.39 448.77L13.4 435.96L9.91 422.94L6.93 409.72L4.46 396.3L2.53 382.72L1.13 368.96L0.28 355.05L0 341L0.28 326.95L1.13 313.04L2.53 299.28L4.46 285.7L6.93 272.28L9.91 259.06L13.4 246.04L17.39 233.23L21.86 220.64L26.8 208.28L32.21 196.16L38.07 184.3L44.37 172.71L51.1 161.39L58.25 150.36L65.8 139.62L73.75 129.2L82.09 119.09L90.81 109.32L99.89 99.89L109.32 90.81L119.09 82.09L129.2 73.75L139.62 65.8L150.36 58.25L161.39 51.1L172.71 44.37L184.3 38.07L196.16 32.21L208.28 26.8L220.64 21.86L233.23 17.39L246.04 13.4L259.06 9.91L272.28 6.93L285.7 4.46L299.28 2.53L313.04 1.13L326.95 0.28L341 0L355.05 0.28L368.96 1.13Z" id="h4thQOvpLm"></path></defs><g><g><path></path><path></path><path></path><path></path><path></path><path></path><g><use xlink:href="#bLmo1dlb0" opacity="1" fill="#000000" fill-opacity="1"></use><g><use xlink:href="#bLmo1dlb0" opacity="1" fill-opacity="0" stroke="#000000" stroke-width="1" stroke-opacity="0"></use></g></g><path></path><path></path><g><use xlink:href="#h4thQOvpLm" opacity="1" fill="#3473e6" fill-opacity="1"></use><g><use xlink:href="#h4thQOvpLm" opacity="1" fill-opacity="0" stroke="#000000" stroke-width="1" stroke-opacity="0"></use></g></g><path></path><path></path></g></g></svg>