<?xml version="1.0" encoding="UTF-8" standalone="no"?>
<!DOCTYPE svg PUBLIC "-//W3C//DTD SVG 1.1//EN" "http://www.w3.org/Graphics/SVG/1.1/DTD/svg11.dtd">
<svg version="1.1" xmlns="http://www.w3.org/2000/svg" xmlns:xlink="http://www.w3.org/1999/xlink" preserveAspectRatio="xMidYMid meet" viewBox="0 0 682 682" width="682" height="682"><defs><path d="M426.58 671.15L425.79 671.36L425 671.56L425.79 671.36L426.58 671.15L427.37 670.94L428.16 670.73L427.37 670.94L426.58 671.15Z" id="bLmo1dlb0"></path><path d="M368.96 1.13L382.72 2.53L396.3 4.46L409.72 6.93L422.94 9.91L435.96 13.4L448.77 17.39L461.36 21.86L473.72 26.8L485.84 32.21L497.7 38.07L509.29 44.37L520.61 51.1L531.64 58.25L542.38 65.8L552.8 73.75L562.91 82.09L572.68 90.81L582.11 99.89L591.19 109.32L599.91 119.09L608.25 129.2L616.2 139.62L623.75 150.36L630.9 161.39L637.63 172.71L643.93 184.3L649.79 196.16L655.2 208.28L660.14 220.64L664.61 233.23L668.6 246.04L672.09 259.06L675.07 272.28L677.54 285.7L679.47 299.28L680.87 313.04L681.72 326.95L682 341L681.72 355.05L680.87 368.96L679.47 382.72L677.54 396.3L675.07 409.72L672.09 422.94L668.6 435.96L664.61 448.77L660.14 461.36L655.2 473.72L649.79 485.84L643.93 497.7L637.63 509.29L630.9 520.61L623.75 531.64L616.2 542.38L608.25 552.8L599.91 562.91L591.19 572.68L582.11 582.11L572.68 591.19L562.91 599.91L552.8 608.25L542.38 616.2L531.64 623.75L520.61 630.9L509.29 637.63L497.7 643.93L485.84 649.79L473.72 655.2L461.36 660.14L448.77 664.61L435.96 668.6L422.94 672.09L409.72 675.07L396.3 677.54L382.72 679.47L368.96 680.87L355.05 681.72L341 682L326.95 681.72L313.04 680.87L299.28 679.47L285.7 677.54L272.28 675.07L259.06 672.09L246.04 668.6L233.23 664.61L220.64 660.14L208.28 655.2L196.16 649.79L184.3 643.93L172.71 637.63L161.39 630.9L150.36 623.75L139.62 616.2L129.2 608.25L119.09 599.91L109.32 591.19L99.89 582.11L90.81 572.68L82.09 562.91L73.75 552.8L65.8 542.38L58.25 531.64L51.1 520.61L44.37 509.29L38.07 497.7L32.21 485.84L26.8 473.72L21.86 461.36L17.39 448.77L13.4 435.96L9.91 422.94L6.93 409.72L4.46 396.3L2.53 382.72L1.13 368.96L0.28 355.05L0 341L0.28 326.95L1.13 313.04L2.53 299.28L4.46 285.7L6.93 272.28L9.91 259.06L13.4 246.04L17.39 233.23L21.86 220.64L26.8 208.28L32.21 196.16L38.07 184.3L44.37 172.71L51.1 161.39L58.25 150.36L65.8 139.62L73.75 129.2L82.09 119.09L90.81 109.32L99.89 99.89L109.32 90.81L119.09 82.09L129.2 73.75L139.62 65.8L150.36 58.25L161.39 51.1L172.71 44.37L184.3 38.07L196.16 32.21L208.28 26.8L220.64 21.86L233.23 17.39L246.04 13.4L259.06 9.91L272.28 6.93L285.7 4.46L299.28 2.53L313.04 1.13L326.95 0.28L341 0L355.05 0.28L368.96 1.13ZM411.96 188.9L408.8 189.22L405.68 189.67L402.6 190.23L399.57 190.92L396.58 191.72L393.64 192.64L390.75 193.66L387.91 194.8L385.13 196.04L382.41 197.38L379.75 198.83L377.15 200.37L374.62 202.01L372.15 203.75L369.76 205.57L367.44 207.49L365.19 209.49L363.03 211.57L360.95 213.74L358.95 215.98L357.03 218.3L355.21 220.69L353.47 223.16L351.83 225.69L350.28 228.29L348.84 230.95L347.49 233.67L346.25 236.45L345.12 239.29L344.09 242.17L343.18 245.11L342.38 248.1L341.69 251.14L341.12 254.21L340.68 257.33L340.36 260.49L340.17 263.68L340.1 266.91L340.1 267.37L340.11 267.83L340.11 268.28L340.12 268.74L340.13 269.2L340.15 269.66L340.16 270.11L340.18 270.57L340.2 271.02L340.23 271.48L340.26 271.93L340.29 272.38L340.32 272.84L340.35 273.29L340.39 273.74L340.43 274.19L340.47 274.64L340.52 275.09L340.56 275.53L340.61 275.98L340.67 276.43L340.72 276.87L340.78 277.32L340.84 277.76L340.9 278.21L340.97 278.65L341.03 279.09L341.1 279.53L341.18 279.97L341.25 280.41L341.33 280.85L341.41 281.28L341.49 281.72L341.57 282.16L341.66 282.59L341.75 283.03L341.84 283.46L341.94 283.89L342.03 284.32L342.13 284.75L337.27 284.46L332.43 284.05L327.63 283.55L322.85 282.95L318.11 282.24L313.4 281.44L308.72 280.54L304.08 279.54L299.48 278.44L294.91 277.25L290.38 275.97L285.89 274.6L281.45 273.13L277.04 271.57L272.68 269.93L268.36 268.19L264.09 266.37L259.86 264.46L255.68 262.47L251.55 260.4L247.47 258.24L243.44 256L239.46 253.68L235.53 251.28L231.66 248.8L227.84 246.24L224.08 243.61L220.38 240.9L216.73 238.12L213.15 235.27L209.62 232.35L206.16 229.35L202.76 226.29L199.42 223.15L196.15 219.95L192.94 216.68L189.8 213.35L186.73 209.95L183.73 206.49L180.8 202.97L180.3 203.84L179.82 204.72L179.34 205.61L178.87 206.5L178.42 207.4L177.97 208.3L177.54 209.21L177.12 210.13L176.71 211.05L176.31 211.98L175.92 212.92L175.55 213.86L175.19 214.81L174.83 215.76L174.49 216.72L174.17 217.69L173.85 218.66L173.55 219.64L173.26 220.62L172.98 221.6L172.72 222.6L172.46 223.59L172.22 224.6L172 225.6L171.78 226.62L171.58 227.63L171.4 228.65L171.22 229.68L171.06 230.71L170.91 231.74L170.78 232.78L170.66 233.83L170.55 234.87L170.46 235.93L170.38 236.98L170.32 238.04L170.27 239.1L170.23 240.17L170.21 241.24L170.2 242.32L170.23 244.35L170.31 246.36L170.43 248.37L170.61 250.36L170.84 252.34L171.11 254.3L171.44 256.24L171.81 258.17L172.23 260.08L172.69 261.98L173.2 263.86L173.75 265.71L174.35 267.55L175 269.37L175.68 271.17L176.41 272.94L177.18 274.69L177.99 276.42L178.85 278.13L179.74 279.82L180.67 281.47L181.64 283.11L182.65 284.71L183.69 286.3L184.78 287.85L185.9 289.38L187.05 290.87L188.24 292.34L189.47 293.78L190.73 295.19L192.02 296.57L193.34 297.91L194.7 299.23L196.09 300.51L197.5 301.75L198.95 302.97L200.43 304.14L201.94 305.29L203.47 306.39L205.03 307.47L204.07 307.43L203.11 307.38L202.16 307.32L201.21 307.25L200.26 307.17L199.31 307.08L198.37 306.97L197.43 306.86L196.49 306.73L195.56 306.59L194.63 306.44L193.71 306.28L192.79 306.11L191.87 305.93L190.96 305.74L190.05 305.54L189.14 305.32L188.24 305.1L187.34 304.87L186.45 304.62L185.56 304.37L184.68 304.1L183.8 303.83L182.92 303.54L182.05 303.25L181.18 302.94L180.32 302.63L179.47 302.3L178.61 301.97L177.77 301.63L176.93 301.27L176.09 300.91L175.26 300.54L174.43 300.16L173.61 299.77L172.79 299.37L171.98 298.96L171.18 298.54L170.38 298.11L169.58 297.68L169.58 297.7L169.58 297.73L169.58 297.75L169.58 297.8L169.58 297.82L169.58 297.85L169.58 297.87L169.58 297.92L169.58 297.95L169.58 298L169.58 298.02L169.58 298.07L169.58 298.12L169.58 298.17L169.57 298.22L169.57 298.27L169.57 298.29L169.57 298.34L169.57 298.39L169.57 298.44L169.57 298.52L169.57 298.57L169.57 298.68L169.62 301.51L169.77 304.31L170.02 307.09L170.37 309.84L170.8 312.56L171.33 315.25L171.96 317.9L172.67 320.52L173.46 323.1L174.35 325.65L175.32 328.15L176.37 330.61L177.5 333.02L178.71 335.39L180 337.72L181.36 339.99L182.8 342.21L184.31 344.38L185.89 346.5L187.54 348.56L189.26 350.56L191.04 352.51L192.88 354.39L194.79 356.21L196.76 357.97L198.79 359.65L200.87 361.28L203.01 362.83L205.2 364.31L207.45 365.72L209.74 367.05L212.08 368.3L214.47 369.48L216.91 370.58L219.39 371.6L221.91 372.53L224.47 373.38L227.06 374.14L229.7 374.82L232.37 375.4L231.87 375.53L231.38 375.66L230.88 375.79L230.38 375.91L229.88 376.03L229.38 376.15L228.88 376.26L228.38 376.37L227.88 376.48L227.37 376.59L226.87 376.69L226.36 376.79L225.85 376.88L225.34 376.97L224.83 377.06L224.32 377.14L223.8 377.23L223.29 377.3L222.77 377.38L222.26 377.45L221.74 377.52L221.22 377.58L220.7 377.64L220.18 377.7L219.66 377.76L219.14 377.81L218.62 377.86L218.09 377.9L217.57 377.94L217.04 377.98L216.51 378.01L215.98 378.04L215.45 378.07L214.92 378.09L214.39 378.11L213.86 378.13L213.33 378.14L212.8 378.15L212.26 378.15L211.73 378.16L211.35 378.16L210.97 378.15L210.6 378.15L210.22 378.14L209.84 378.13L209.47 378.12L209.1 378.11L208.72 378.1L208.35 378.08L207.98 378.06L207.6 378.04L207.23 378.02L206.86 378L206.49 377.98L206.12 377.95L205.75 377.92L205.38 377.89L205.01 377.86L204.64 377.83L204.27 377.79L203.91 377.76L203.54 377.72L203.17 377.68L202.81 377.63L202.44 377.59L202.07 377.55L201.71 377.5L201.35 377.45L200.98 377.4L200.62 377.35L200.26 377.3L199.89 377.24L199.53 377.18L199.17 377.12L198.81 377.06L198.45 377L198.09 376.94L197.73 376.88L197.37 376.81L197.02 376.74L197.8 379.06L198.65 381.34L199.57 383.59L200.56 385.8L201.61 387.98L202.73 390.12L203.92 392.22L205.16 394.28L206.46 396.29L207.83 398.27L209.25 400.2L210.73 402.08L212.27 403.91L213.86 405.7L215.5 407.44L217.19 409.13L218.94 410.77L220.73 412.35L222.58 413.88L224.47 415.35L226.4 416.76L228.38 418.12L230.4 419.42L232.47 420.65L234.57 421.82L236.72 422.94L238.9 423.98L241.12 424.96L243.37 425.87L245.66 426.72L247.98 427.49L250.33 428.19L252.72 428.82L255.13 429.38L257.57 429.86L260.03 430.27L262.52 430.6L265.04 430.85L267.58 431.02L270.14 431.1L268.11 432.66L266.07 434.19L263.99 435.68L261.89 437.14L259.77 438.57L257.62 439.97L255.45 441.33L253.26 442.65L251.04 443.94L248.8 445.2L246.54 446.42L244.26 447.6L241.95 448.75L239.62 449.86L237.27 450.93L234.91 451.97L232.52 452.97L230.11 453.93L227.68 454.85L225.24 455.73L222.77 456.57L220.29 457.38L217.79 458.14L215.27 458.86L212.73 459.54L210.18 460.18L207.62 460.78L205.03 461.34L202.43 461.85L199.82 462.33L197.19 462.75L194.55 463.14L191.89 463.48L189.22 463.78L186.53 464.03L183.83 464.24L181.12 464.4L178.4 464.52L175.67 464.58L172.92 464.61L172.45 464.61L171.98 464.61L171.51 464.6L171.03 464.6L170.56 464.59L170.09 464.58L169.62 464.58L169.15 464.57L168.68 464.55L168.21 464.54L167.74 464.53L167.27 464.51L166.8 464.49L166.33 464.48L165.86 464.46L165.39 464.44L164.92 464.41L164.45 464.39L163.99 464.36L163.52 464.34L163.05 464.31L162.59 464.28L162.12 464.25L161.65 464.22L161.19 464.19L160.72 464.15L160.26 464.12L159.8 464.08L159.33 464.04L158.87 464L158.41 463.96L157.94 463.92L157.48 463.87L157.02 463.83L156.56 463.78L156.1 463.73L155.64 463.68L155.17 463.63L154.71 463.58L154.26 463.53L156.87 465.17L159.5 466.79L162.16 468.36L164.84 469.91L167.54 471.41L170.27 472.88L173.02 474.31L175.79 475.71L178.58 477.07L181.4 478.39L184.23 479.67L187.09 480.91L189.97 482.12L192.87 483.28L195.78 484.41L198.72 485.49L201.67 486.54L204.65 487.54L207.64 488.51L210.65 489.43L213.68 490.31L216.73 491.15L219.8 491.95L222.88 492.7L225.98 493.41L229.09 494.08L232.22 494.71L235.37 495.29L238.53 495.82L241.7 496.31L244.9 496.76L248.1 497.16L251.32 497.51L254.55 497.82L257.8 498.08L261.06 498.3L264.33 498.47L267.62 498.59L270.92 498.66L274.23 498.68L284.9 498.46L295.33 497.81L305.51 496.73L315.45 495.24L325.13 493.36L334.56 491.09L343.74 488.45L352.67 485.45L361.34 482.11L369.76 478.43L377.92 474.43L385.82 470.13L393.46 465.53L400.84 460.64L407.96 455.49L414.81 450.08L421.4 444.43L427.72 438.54L433.78 432.43L439.56 426.12L445.08 419.61L450.32 412.93L455.3 406.07L460 399.06L464.42 391.9L468.57 384.62L472.44 377.21L476.03 369.7L479.34 362.1L482.37 354.42L485.12 346.67L487.58 338.87L489.76 331.02L491.65 323.15L493.26 315.25L494.57 307.36L495.6 299.47L496.33 291.61L496.77 283.78L496.92 275.99L496.92 275.74L496.92 275.48L496.92 275.23L496.92 274.97L496.92 274.72L496.92 274.47L496.91 274.21L496.91 273.96L496.91 273.71L496.91 273.45L496.9 273.2L496.9 272.95L496.9 272.69L496.89 272.44L496.89 272.19L496.89 271.93L496.88 271.68L496.88 271.43L496.87 271.17L496.87 270.92L496.86 270.67L496.85 270.42L496.85 270.16L496.84 269.91L496.83 269.66L496.83 269.41L496.82 269.15L496.81 268.9L496.8 268.65L496.8 268.4L496.79 268.14L496.78 267.89L496.77 267.64L496.76 267.39L496.75 267.13L496.74 266.88L496.73 266.63L496.72 266.38L496.71 266.13L496.7 265.88L497.84 265.04L498.97 264.2L500.1 263.34L501.22 262.48L502.33 261.61L503.44 260.72L504.53 259.83L505.62 258.93L506.7 258.01L507.77 257.09L508.83 256.16L509.89 255.22L510.94 254.26L511.97 253.3L513 252.34L514.02 251.36L515.04 250.37L516.04 249.37L517.03 248.37L518.02 247.35L519 246.33L519.96 245.3L520.92 244.26L521.87 243.21L522.81 242.15L523.74 241.09L524.66 240.01L525.57 238.93L526.47 237.84L527.37 236.74L528.25 235.64L529.12 234.53L529.98 233.4L530.84 232.27L531.68 231.14L532.51 229.99L533.33 228.84L534.14 227.68L534.95 226.52L535.74 225.34L534.68 225.81L533.63 226.26L532.56 226.71L531.5 227.15L530.43 227.58L529.36 228.01L528.28 228.43L527.2 228.84L526.11 229.24L525.02 229.63L523.93 230.02L522.84 230.4L521.74 230.77L520.63 231.13L519.53 231.48L518.42 231.83L517.3 232.17L516.19 232.5L515.07 232.82L513.94 233.13L512.82 233.44L511.68 233.74L510.55 234.03L509.41 234.31L508.27 234.58L507.13 234.84L505.98 235.1L504.83 235.35L503.68 235.59L502.52 235.82L501.36 236.04L500.2 236.26L499.03 236.46L497.86 236.66L496.69 236.85L495.52 237.03L494.34 237.2L493.16 237.37L491.98 237.52L490.79 237.67L492 236.93L493.19 236.17L494.36 235.39L495.52 234.59L496.67 233.77L497.8 232.94L498.92 232.08L500.01 231.2L501.1 230.3L502.16 229.38L503.21 228.45L504.25 227.5L505.26 226.52L506.26 225.54L507.24 224.53L508.2 223.5L509.15 222.46L510.07 221.4L510.98 220.33L511.87 219.24L512.73 218.13L513.58 217.01L514.41 215.87L515.22 214.72L516.01 213.55L516.78 212.36L517.52 211.17L518.25 209.95L518.95 208.73L519.64 207.49L520.3 206.23L520.93 204.96L521.55 203.68L522.14 202.39L522.71 201.09L523.26 199.77L523.78 198.44L524.28 197.1L524.76 195.74L525.21 194.38L524.07 195.05L522.93 195.7L521.78 196.35L520.62 196.99L519.46 197.62L518.3 198.24L517.12 198.86L515.95 199.46L514.76 200.05L513.57 200.63L512.38 201.21L511.17 201.77L509.97 202.32L508.76 202.87L507.54 203.4L506.32 203.92L505.09 204.44L503.86 204.94L502.62 205.44L501.37 205.92L500.13 206.39L498.87 206.86L497.61 207.31L496.35 207.75L495.08 208.18L493.81 208.6L492.53 209.01L491.25 209.41L489.96 209.8L488.67 210.18L487.37 210.55L486.07 210.91L484.77 211.26L483.46 211.59L482.14 211.92L480.83 212.23L479.5 212.53L478.18 212.82L476.84 213.11L475.51 213.37L474.43 212.24L473.32 211.14L472.2 210.05L471.05 208.99L469.88 207.94L468.69 206.93L467.48 205.93L466.24 204.96L464.99 204.01L463.72 203.09L462.43 202.2L461.13 201.32L459.8 200.48L458.45 199.66L457.09 198.86L455.71 198.1L454.32 197.36L452.9 196.64L451.47 195.96L450.03 195.3L448.57 194.68L447.09 194.08L445.6 193.51L444.1 192.97L442.58 192.46L441.05 191.98L439.51 191.53L437.95 191.11L436.38 190.72L434.79 190.37L433.2 190.05L431.59 189.76L429.98 189.5L428.35 189.27L426.71 189.08L425.06 188.93L423.4 188.8L421.74 188.71L420.06 188.66L418.38 188.64L415.15 188.71L411.96 188.9Z" id="e9bBL4UAt"></path></defs><g><g><path></path><path></path><path></path><path></path><path></path><path></path><g><use xlink:href="#bLmo1dlb0" opacity="1" fill="#000000" fill-opacity="1"></use><g><use xlink:href="#bLmo1dlb0" opacity="1" fill-opacity="0" stroke="#000000" stroke-width="1" stroke-opacity="0"></use></g></g><path></path><path></path><path></path><path></path><g><use xlink:href="#e9bBL4UAt" opacity="1" fill="#3473e6" fill-opacity="1"></use><g><use xlink:href="#e9bBL4UAt" opacity="1" fill-opacity="0" stroke="#000000" stroke-width="1" stroke-opacity="0"></use></g></g></g></g></svg>